<svg preserveAspectRatio="none" overflow="visible" style="display: block;" width="24" height="24" viewBox="0 0 24 24" fill="none" xmlns="http://www.w3.org/2000/svg">
<g id="Group">
<path id="Vector" d="M18 4C19.1046 4 20 4.89543 20 6V14C20 15.1046 19.1046 16 18 16H10C8.89543 16 8 15.1046 8 14V6C8 4.89543 8.89543 4 10 4H18ZM20 2H8C6.9 2 6 2.9 6 4V16C6 17.1 6.9 18 8 18H20C21.1 18 22 17.1 22 16V4C22 2.9 21.1 2 20 2ZM13.8903 12.5667C13.1079 13.3562 11.8319 13.3564 11.0493 12.567L9.69464 11.2006C9.31012 10.8128 9.31035 10.1874 9.69516 9.79988C10.0837 9.40851 10.7166 9.40815 11.1057 9.79906L11.4348 10.1298C12.0055 10.7032 12.9338 10.7026 13.5036 10.1283L16.8948 6.71072C17.2834 6.31906 17.9167 6.31896 18.3055 6.71049C18.6899 7.09774 18.6903 7.72258 18.3062 8.11021L13.8903 12.5667ZM4 7C4 6.44772 3.55228 6 3 6C2.44772 6 2 6.44772 2 7V20C2 21.1 2.9 22 4 22H17C17.5523 22 18 21.5523 18 21C18 20.4477 17.5523 20 17 20H6C4.89543 20 4 19.1046 4 18V7Z" fill="#B8FF5C"/>
<g id="Vector_2">
</g>
</g>
</svg>
